#!OML:ASF E:\Style4\Style4.ASF
:FULLY-SPECIFIED
:DEGREES
1554
root -0.16033 17.9687 -1.15041 6.6959 -1.05895 2.86243
lowerback 3.92319 1.73098 -1.60255
upperback -1.18019 2.20318 -0.679725
thorax -3.44801 1.12306 0.0467096
lowerneck 2.13177 -3.8046 -7.07781
upperneck 4.58173 -5.31605 4.84504
head 1.43496 -2.71795 2.74286
rclavicle -5.7896e-015 5.56597e-015
rhumerus -90.3573 56.0518 -125.26
rradius 86.5021
rwrist -1.93212
rhand -7.07486 33.2922
rfingers 7.12502
rthumb 18.7988 4.18063
lclavicle -5.7896e-015 5.56597e-015
lhumerus -33.276 13.2512 29.1604
lradius 118.32
lwrist -14.7428
lhand -12.8256 34.5135
lfingers 7.12502
lthumb 13.2613 64.0716
rfemur -15.1908 1.19174 15.4131
rtibia 28.6956
rfoot -18.7894 -14.6617
rtoes -10.3846
lfemur -11.9377 -2.26047 -21.6541
ltibia 23.8368
lfoot -18.0412 9.34532
ltoes -12.9407
1555
root -0.159369 17.995 -1.13698 6.80462 -1.10709 2.85181
lowerback 3.67869 1.7578 -1.55613
upperback -1.29763 2.24547 -0.677992
thorax -3.43031 1.14378 0.0253497
lowerneck 2.06267 -3.8089 -7.08368
upperneck 4.48912 -5.31909 4.93759
head 1.42085 -2.71728 2.7744
rclavicle -1.23992e-014 -1.39149e-015
rhumerus -90.598 56.0303 -125.473
rradius 86.5506
rwrist -1.8713
rhand -7.19617 33.1582
rfingers 7.12502
rthumb 18.6821 4.03532
lclavicle -1.23992e-014 -1.39149e-015
lhumerus -33.0136 13.4221 28.8464
lradius 118.184
lwrist -14.7338
lhand -13.089 34.2526
lfingers 7.12502
lthumb 13.0074 63.8271
rfemur -14.7985 1.44071 15.4081
rtibia 27.849
rfoot -18.4235 -14.7806
rtoes -10.2203
lfemur -11.4276 -2.36798 -21.6565
ltibia 22.8001
lfoot -17.6125 9.63483
ltoes -13.5673
1556
root -0.158507 18.0161 -1.12684 6.85149 -1.11886 2.7982
lowerback 3.49821 1.78468 -1.46309
upperback -1.38314 2.28941 -0.66086
thorax -3.4144 1.16429 -0.00760955
lowerneck 2.05051 -3.81596 -7.02754
upperneck 4.33952 -5.32468 4.95625
head 1.37367 -2.71788 2.77081
rclavicle -1.41883e-014 -3.37934e-015
rhumerus -90.7543 56.0222 -125.617
rradius 86.5364
rwrist -1.80407
rhand -7.34728 33.2289
rfingers 7.12502
rthumb 18.5368 4.09213
lclavicle -1.41883e-014 -3.37934e-015
lhumerus -32.6839 13.6164 28.5951
lradius 118.095
lwrist -14.7594
lhand -13.2753 34.1894
lfingers 7.12502
lthumb 12.8278 63.7753
rfemur -14.3687 1.68058 15.4636
rtibia 27.0654
rfoot -18.1103 -14.9435
rtoes -10.2079
lfemur -10.932 -2.49332 -21.5979
ltibia 21.8746
lfoot -17.2721 9.77974
ltoes -13.5016
1557
root -0.157653 18.0317 -1.11568 6.90839 -1.14375 2.78829
lowerback 3.29152 1.80898 -1.42201
upperback -1.46646 2.3275 -0.649225
thorax -3.38314 1.18288 -0.0156868
lowerneck 2.02081 -3.80625 -6.95478
upperneck 4.20352 -5.30664 4.96907
head 1.33169 -2.70642 2.76212
rclavicle -2.62396e-014 1.37161e-014
rhumerus -90.9591 56.0131 -125.8
rradius 86.5269
rwrist -1.78124
rhand -7.59891 33.2199
rfingers 7.12502
rthumb 18.2947 4.06019
lclavicle -2.62396e-014 1.37161e-014
lhumerus -32.4344 13.7527 28.285
lradius 118.036
lwrist -14.9812
lhand -13.6023 34.1155
lfingers 7.12502
lthumb 12.5126 63.7209
rfemur -14.0042 1.88892 15.4612
rtibia 26.37
rfoot -17.8979 -15.0706
rtoes -9.95518
lfemur -10.4829 -2.60507 -21.5872
ltibia 21.0203
lfoot -17.0173 9.85504
ltoes -12.8821
1558
root -0.157732 18.0457 -1.10562 6.96511 -1.09493 2.78371
lowerback 3.10879 1.82605 -1.37134
upperback -1.55869 2.35541 -0.644907
thorax -3.37374 1.19619 -0.0368995
lowerneck 2.12277 -3.82385 -6.89945
upperneck 4.01355 -5.33361 5.027
head 1.25442 -2.71862 2.77431
rclavicle -3.20043e-014 9.34288e-015
rhumerus -91.0877 55.9369 -125.883
rradius 86.5248
rwrist -1.76797
rhand -7.76382 33.1447
rfingers 7.12502
rthumb 18.1361 3.97024
lclavicle -3.20043e-014 9.34288e-015
lhumerus -32.2001 13.874 27.9981
lradius 117.935
lwrist -15.2704
lhand -14.1349 33.9494
lfingers 7.12502
lthumb 11.999 63.5854
rfemur -13.6758 2.04496 15.4658
rtibia 25.7491
rfoot -17.7911 -15.1914
rtoes -9.58614
lfemur -10.1013 -2.73634 -21.5751
ltibia 20.2595
lfoot -16.8018 9.99449
ltoes -12.8351
1559
root -0.1578 18.0575 -1.09955 7.00528 -1.0481 2.82083
lowerback 2.94916 1.84896 -1.3664
upperback -1.63147 2.38834 -0.652436
thorax -3.35869 1.21276 -0.0453388
lowerneck 2.18584 -3.86662 -6.90094
upperneck 3.9587 -5.39671 5.12499
head 1.23337 -2.74984 2.80854
rclavicle -6.43565e-015 5.56597e-015
rhumerus -91.1136 55.8467 -125.874
rradius 86.5315
rwrist -1.75011
rhand -7.79554 33.1012
rfingers 7.12502
rthumb 18.1056 3.92393
lclavicle -6.43565e-015 5.56597e-015
lhumerus -31.9364 14.0179 27.7652
lradius 117.868
lwrist -15.4217
lhand -14.3622 33.9316
lfingers 7.12502
lthumb 11.7798 63.5804
rfemur -13.3913 2.19181 15.4238
rtibia 25.222
rfoot -17.6561 -15.3035
rtoes -9.36306
lfemur -9.76014 -2.89115 -21.609
ltibia 19.5812
lfoot -16.5739 10.1361
ltoes -12.9672
1560
root -0.15818 18.0667 -1.09444 7.01677 -1.04372 2.79764
lowerback 2.85576 1.88053 -1.34077
upperback -1.69913 2.43337 -0.631108
thorax -3.37621 1.23524 -0.0385915
lowerneck 2.04017 -3.89102 -6.92966
upperneck 4.08438 -5.42804 5.24571
head 1.30692 -2.76387 2.85047
rclavicle 2.36057e-014 -1.05356e-014
rhumerus -91.1528 55.7846 -125.878
rradius 86.5552
rwrist -1.7594
rhand -7.73084 32.9533
rfingers 7.12502
rthumb 18.1678 3.78178
lclavicle 2.36057e-014 -1.05356e-014
lhumerus -31.7137 14.1474 27.5685
lradius 117.856
lwrist -15.5658
lhand -14.4151 34.1422
lfingers 7.12502
lthumb 11.7288 63.7939
rfemur -13.1247 2.37827 15.446
rtibia 24.761
rfoot -17.4914 -15.4225
rtoes -9.06821
lfemur -9.44794 -2.9729 -21.5845
ltibia 19.0113
lfoot -16.3429 10.2478
ltoes -13.0296
